<?xml version="1.0" encoding="utf-8"?>
<!-- Generator: Adobe Illustrator 23.0.1, SVG Export Plug-In . SVG Version: 6.00 Build 0)  -->
<svg version="1.1" id="图层_1" xmlns="http://www.w3.org/2000/svg" xmlns:xlink="http://www.w3.org/1999/xlink" x="0px" y="0px"
	 viewBox="0 0 50 50" style="enable-background:new 0 0 50 50;" xml:space="preserve">
<style type="text/css">
	.st0{fill-rule:evenodd;clip-rule:evenodd;fill:#FFFFFF;}
</style>
<g id="图层_10">
	<g>
		<g id="Clip-16_1_">
			<path class="st0" d="M0.2,24.8c0,13.7,11.1,24.8,24.8,24.8l0,0c8.1,0,15.4-3.9,19.9-9.9l0,0v8c0,1.2,1.1,2.3,2.3,2.3l0,0h0.3
				c1.2,0,2.3-1.1,2.3-2.3l0,0v-23l0,0C49.8,11,38.6,0,24.9,0l0,0C11.4,0,0.2,11.1,0.2,24.8 M5.3,24.8C5.3,14,14.2,5.1,25.1,5.1l0,0
				c10.8,0,19.7,8.9,19.7,19.7l0,0c0,10.8-8.9,19.7-19.7,19.7l0,0C14.2,44.4,5.3,35.7,5.3,24.8"/>
		</g>
		<g>
			<path class="st0" d="M25.4,14.6C25.5,14.6,25.5,14.6,25.4,14.6c5.7,0,10.2,4.5,10.2,10.2S31.1,35,25.4,35s-10.2-4.5-10.2-10.2
				S19.8,14.6,25.4,14.6z M31.1,19.3c0-1.5-1.2-2.9-2.9-2.9c-1.5,0-2.9,1.2-2.9,2.9c0,1.5,1.2,2.9,2.9,2.9
				C29.9,22.1,31.1,20.9,31.1,19.3z"/>
		</g>
	</g>
</g>
</svg>
